<svg width="240" height="234" viewBox="0 0 240 234" fill="none" xmlns="http://www.w3.org/2000/svg">
<g clip-path="url(#clip0_17_2)">
<rect width="240" height="234" fill="white"/>
<path d="M0.000976562 122.817V33.961C0.000976562 15.205 15.206 0 33.962 0H206.374C225.13 0 240.334 15.205 240.334 33.96V200.478C240.334 219.234 225.129 234.438 206.374 234.438H111.624C100.366 234.438 89.57 229.966 81.609 222.005L12.434 152.832C4.47299 144.871 0.000976562 134.075 0.000976562 122.817Z" fill="#E28086"/>
<path d="M201.367 55.605H82.41C78.141 55.605 74.682 52.145 74.682 47.877C74.682 43.609 78.142 40.149 82.41 40.149H201.366C205.635 40.149 209.094 43.609 209.094 47.877C209.094 52.145 205.635 55.605 201.367 55.605Z" fill="#FFB8E1"/>
<path d="M161.788 94.294H82.41C78.141 94.294 74.682 90.834 74.682 86.566C74.682 82.298 78.142 78.838 82.41 78.838H161.788C166.057 78.838 169.516 82.298 169.516 86.566C169.516 90.834 166.057 94.294 161.788 94.294Z" fill="#FFB8E1"/>
<path d="M0 122.811V115.564C0 129.278 11.121 140.399 24.835 140.399H60.081C78.835 140.399 94.038 155.603 94.038 174.356V209.602C94.038 223.316 105.159 234.437 118.873 234.437H111.626C100.366 234.437 89.569 229.961 81.605 222.004L12.433 152.832C4.47601 144.868 0 134.071 0 122.811Z" fill="#DD636E"/>
</g>
<defs>
<clipPath id="clip0_17_2">
<rect width="240" height="234" fill="white"/>
</clipPath>
</defs>
</svg>
